<?xml version="1.0" encoding="UTF-8" standalone="no"?>
<svg width="640" xmlns="http://www.w3.org/2000/svg" height="480">
 <path id="svg_1" transform="rotate(-90 331.67 307.76)" fill="#003f7f" d="m298.76 92c8.906 8.6511 8.413 28.367 15.133 39.588-1.695 6.3118 2.981 10.309 4.202 14.848 0.68802 2.5525 0.13602 7.3925 0.841 10.886 2.656 13.149 7.444 26.215 7.566 39.588 0.033997 3.7322 2.085 7.874 2.522 11.877 0.35602 3.2636-0.32498 7.137 0 10.888 0.54504 6.3011 1.295 12.745 0.84103 20.784 3.134 2.2475 10.204-0.13776 12.61 2.9681 0.067017-15.661 5.594-36.328 4.202-53.447 1.986-4.6069 4.625-13.669 2.522-19.795 1.725-0.93832 2.328-3.1953 3.363-4.9496 0.34399-2.3829-1.537-2.151-0.84201-4.9483 5.52-15.406 8.991-39.322 14.29-55.426 0.70801-2.1486-1.694-11.211 5.046-4.9484-0.29105 1.9379-4.994 1.2857-4.205 7.9188 0.28702 2.4124 1.293 3.5968 3.363 4.9495 2.637-3.512 2.257-15.794 5.885-14.848 5.235 1.7048-0.25604 7.5079-0.84103 9.8979-1.133 4.6316-1.073 10.708-2.522 15.835-0.72702 2.5737-2.778 4.5128-3.361 6.9287-3.626 15.03-3.318 32.496-8.407 45.528 3.416 6.5119-2.317 9.693 0.84103 13.858-4.256 7.1947-2.783 21.133-5.884 29.693-0.46399 2.1946 1.604 1.4093 1.683 2.968-3.498 5.7832-2.551 16.796-4.205 24.747 2.6 3.3095 4.682 6.3482 7.565 9.8968 1.065 1.3103 2.851 1.0761 3.362 1.9791 3.021 5.3192 2.648 12.067 5.045 18.804h-2.521c0.76199 1.7448 3.094 1.6365 3.362 3.9594-1.155 8.0801-0.487 14.229-2.522 21.774-1.567 5.8137-6.945 10.608-7.565 15.838-0.698 5.8902 3.017 10.24 4.203 15.833 2.552 12.002 0.28195 24.194 2.522 35.633-1.863-0.54633-1.197 1.8884-2.522 1.978 1.291 11.325-9.569 16.272-13.449 24.744-3.146 0.25784-4.778 2.2946-6.728 3.9582 0.86298 19.882 1.871 38.866 3.363 61.364 1.413 21.315 7.403 41.838 7.566 60.373-6.287-3.1576-4.68-15.604-11.77-17.814-1.49 6.4025 4.119 9.6271 3.361 11.877-2.261-0.68164-1.624 2.0427-2.521 2.9681-7.277-33.712-11.305-81.252-10.086-115.8-4.955-2.722-11.399 0.65582-15.975-0.99014-0.82196 15.653-1.114 36.606-1.68 51.466-0.22003 3.0423-1.824 4.4504-2.522 6.9299-0.578 14.641-3.548 27.569-6.726 41.568-1.228 5.4124-1.466 13.078-5.885 15.836-3.503-0.49329-3.604-4.9955-5.044-7.9189-1.962 1.646-2.158 5.3746-3.361 7.9189-2.295-3.1965-0.016968-8.6394 0.84103-11.878 5.443-20.574 11.507-45.058 13.45-72.25 0.70801-9.9167 0.25601-20.298 1.682-31.67-15.154-7.4843-22.022-18.116-22.698-34.641-0.074005-1.7907-0.923-1.972-0.841-0.99011-0.45599-5.4169-0.74097-13.471 1.681-19.795 2.928 0.65698-0.47601 7.4456 2.522 9.8968-1.479 0.23901-1.917 1.7024-1.682 3.9594 3.676 7.9765-1.62 20.088 6.726 25.733 2.29 1.5458 4.778 3.5744 7.564 0-1.272-3.12-4.752-3.6451-7.564-4.9496 0.70297-2.1392 2.175-3.3766 1.68-6.9287-8.093-6.639 1.934-24.852-8.406-30.683 1.214-8.7994 5.447-14.043 8.406-20.785-5.082-13.601-8.071-18.756-10.086-34.641 3.516 3.7463 2.89-8.3885 0.84003-6.9286 4.817-18.814 13.851-34.888 31.944-40.578v-17.817c2.049 2.2064 2.678 6.0845 4.204 8.9066-4.114-1.2139-1.902 5.0214-3.363 6.9298 0.11902 2.8291 3.507 1.8084 5.885 1.9803-3.511-9.7154 2.644-11.473-1.681-20.784-3.069-2.5737-3.776 1.9756-5.885 0 0.177-5.8161-0.63101-10.474-2.521-13.857 0.76697-12.123-3.483-26.592-7.566-33.652 0.87497-10.196-3.94-21.563-7.566-29.69 0.32297-6.267 0.69598-8.4392-2.522-11.878 1.606-6.9463-2.687-12.556-5.042-17.814 1.121-6.1481-0.224-12.116-5.044-13.856 1.22-2.8503 1.22-7.1394 5.044-6.9263-0.676 3.4332 1.251 3.8028 0.841 6.9263 3.117-0.70166 3.607 1.6919 6.724 0.989 2.09-3.1835-2.553-5.0543-1.682-9.8956zm-4.201 12.865c2.288 2.5842 1.602 8.6699 7.564 6.9298 1.891-4.0383-3.459-12.616-7.564-6.9298zm5.042 17.816c2.381 0.166 3.504 1.8155 5.885 1.9791 1.379-4.275-3.084-9.3128-5.885-11.876-3.765 2.2994 0.16998 5.9903 0 9.8967zm68.934 1.9791c0.591-4.9708 0.52301-4.6011 0.841-9.8956-1.601-0.42384-2.11-2.1334-4.204-1.9803-0.397 3.8122-3.27 13.69 3.363 11.876zm-3.363 11.878c1.559-2.1251 0.56598-7.2512 0.84097-10.888h-3.362c-1.361 3.6756-1.646 10.852 2.521 10.888zm-62.208-0.9902c2.673 0.15189 3.698 2.2452 6.726 1.9803-1.09-5.6454-2.737-10.631-8.407-10.888 0.069977 3.5461 1.308 5.7195 1.681 8.9077zm60.526 12.866c-0.96698-2.7715-0.96698-5.1438 0-7.9165-1.67-0.014175-1.067-2.6997-3.362-1.9803-2.015 3.3895-2.767 11.095 3.362 9.8968zm-51.278 0c-1.427-4.2585-3.141-8.1779-7.566-8.9054 1.06 4.0536 2.699 12.624 7.566 8.9054zm47.075 11.878c2.72-1.7189 2.234-10.208-1.68-9.8968-2.484 1.9579-2.149 9.7366 1.68 9.8968zm-47.916 2.9693c2.568-0.71468 3.063 1.0102 5.044 0.99014-1.646-5.3228-2.716-11.319-8.407-11.878 0.107 4.8236 2.558 6.8863 3.363 10.888zm47.076 11.876v-11.876c-1.59 0.22131-1.854-1.115-3.362-0.99016-1.224 4.9437-1.522 12.4 3.362 12.866zm-43.713 2.9681h4.202c-0.827-6.2823-3.188-10.762-7.565-12.866 0.893 4.5574 2.182 8.6476 3.363 12.866zm41.192 8.9089c1.907-4.0218 0.84402-11.877-3.361-11.877-2.139 4.2926-0.75198 11.77 3.361 11.877zm-42.033-5.9385c3.002 3.3919 1.931 11.584 7.565 11.877 2.632-5.3816-5.299-15.457-7.565-11.877zm41.192 17.814c0.37503-4.3997-0.59897-7.2136-1.683-9.8956h-2.521c-0.97098 4.3456-0.81299 10.023 4.204 9.8956zm-36.149 4.9496c-0.91 4.9484 0.151 15.478 6.726 14.846-0.68799-6.778-3.073-11.559-6.726-14.846zm5.045-0.9902c-2.885-2.5431-2.168-9.3234-6.726-9.8967-1.424 6.8969 3.773 14.512 6.726 9.8967zm24.378 6.9287c1.766 1.2209 3.276 2.7385 5.043 3.9594-0.020996-6.247 0.55402-13.187-4.203-13.858 0.49802 4.2149-0.60397 6.5472-0.84 9.8991zm2.523 16.825c1.325-2.5266 1.325-10.337 0-12.866-6.396-0.69231-5.139 13.246 0 12.866zm0 12.867c-1.19-4.8306 0.49503-11.362-5.045-12.868-0.029968 6.3058-1.004 13.721 5.045 12.868zm-6.728 4.9496c0.99399 1.1409 2.974 1.1197 5.045 0.98895-0.51798-2.6891-1.668-4.6352-3.362-5.9385-0.85498 1.2998-0.823 3.6475-1.683 4.9496zm-25.218 5.9362c3.016 1.7731 7.496-2.0591 8.407-5.9362-3.041-1.8037-7.7 1.8178-8.407 5.9362zm10.929-0.989c4.948 2.6337 9.558-1.3139 11.769-4.9472-5.38-0.87714-11.451-2.3182-11.769 4.9472zm-20.175 8.9078c2.302-4.5457 6.92-6.3683 8.406-11.876-4.383-2.2829-13.1 6.5401-8.406 11.876zm31.944-7.9188c1.865 3.359 10.039 3.6427 12.61 2.9693-1.301-5.3816-9.285-8.1343-12.61-2.9693zm-38.67 60.375c1.398 1.9838 2.257 4.5998 5.044 4.9484 0.97998-4.355 1.441-10.762-3.363-10.888-0.66998 1.8508-1.404 3.6262-1.681 5.9397zm13.452-49.487c0.59497 3.6698-1.438 4.2467-0.841 7.92 2.103 0.82065 3.301 2.7103 5.883 2.9681 1.807-2.536-0.77203-5.6112 0.84097-6.9287 6.141 0.67584 1.771 8.9808 0.84103 12.866-1.381 5.7701-3.576 11.553-3.363 16.827-5.945 8.8336-8.543 21.611-13.45 31.669 7.436 18.795 7.96 41.996 11.769 63.344 6.016 0.15424 11.904 0.15897 15.975-1.9791 0.94898-17.746 2.634-32.824 6.724-47.509 2.237-8.033 6.724-15.559 6.726-22.764 0.002014-2.7797-1.992-6.8863-2.521-9.8979-2.266-12.878-2.785-23.994-1.682-36.619 3.347 3.6004 4.237 4.1714 9.248 1.978 1.211 6.9357-1.119 22.756 4.203 27.714 1.598-8.0389-0.071991-19.341 0.84201-25.732 1.502 5.4876 3.231 10.71 8.404 11.878 0.672-4.4998-3.152-8.3191 0-9.8979-3.552-1.095-6.289-3.1518-10.087-3.9594-0.14102-2.8032-1.542-4.123-1.682-6.9263-3.748-1.1138 0.51099 7.1995-4.203 4.9496-1.384-3.6497-2.091-8.0966-5.886-8.9089-1.812 0.83591 0.314 6.3093-1.682 6.9298-1.33-2.536 0.80499-7.834 0-12.868-3.895-2.6114-12.712-3.2766-15.972-0.9902 0.028961 4.2549 4.466 3.3189 3.363 8.9077-5.752 1.6248-10.929-4.568-15.972-6.9286-10.197 8.3638-18.719 32.059-10.929 49.485 6.053-13.328 8.004-31.482 13.451-45.527zm-16.815-2.9692c0.26001 3.3224-1.121 8.5805 2.522 7.9188 0.41101-4.7976 3.531-6.4012 4.204-10.888-2.577-2.5384-4.424 2.1216-6.726 2.9693zm20.175 0.9901c2.342 1.5847 2.325-4.2749 0.841-3.9594-0.26401 1.3374-1.196 1.8896-0.841 3.9594zm30.265-1.9791c0.27499 5.6124 7.338 3.2365 10.928 4.9472-1.162-6.0551-5.425-6.0798-10.928-4.9472zm-52.962 18.803c2.396-1.9249 3.99-10.948 0-11.876-2.136 1.7496-4.617 10.91 0 11.876zm59.689-5.9361c2.039 1.5564 3.59 3.6898 7.563 2.968-0.51102-5.0061-1.524-9.4188-6.724-8.9054 0.60901 3.0246-1.451 2.9092-0.83899 5.9374zm-38.673 13.855c2.053-4.1925 0.772-11.795-2.521-12.865-2.514 3.8617-4.158 12.92 2.521 12.865zm31.946 3.9594c-2.512-2.9834-0.061005-11.808-5.887-10.888 0.23099 5.6701 1.558 10.046 5.887 10.888zm-53.803 3.9594v-10.888c-1.749-0.57925-2.717-2.0804-4.202-2.9692-0.94 4.3008-2.123 15.065 4.202 13.857zm12.611 12.866c5.242-0.20486 2.935-7.628 1.681-10.887 3.253 0.42496 2.99 1.0832 5.044-0.98898-0.689-3.8075-0.65701-8.4674-4.204-8.9089-0.62302 8.1577-6.572 15.441-2.521 20.785zm55.482-4.9495v-9.8968c-2.185-0.39679-2.534-2.9528-5.044-2.9681-0.65698 7.0417 0.83402 11.556 5.044 12.865zm-12.608 2.9692c0.003998-5.2804-2.162-8.0106-3.363-11.876h-2.521c-0.80801 7.2182 1.526 10.736 5.884 11.876zm-55.485 0.9901c1.377-3.9747-2.235-9.6318-5.883-10.886-0.41797 6.4282 1.648 9.9344 5.883 10.886zm63.89 3.9582c1.25-0.83826 1.217-3.1847 1.683-4.9484-1.26-1.487-1.504-4.1678-3.361-4.9495-1.634 2.9646-2.581 9.2327 1.678 9.8979zm-4.202 11.879c-1.188-6.2752-3.588-13.315-9.248-16.827 1.213 7.8093 2.176 15.915 9.248 16.827zm-57.166-4.9507c2.469-4.6834-1.855-8.7029-5.042-9.898-3.241 3.2601 0.672 9.6354 5.042 9.898zm4.204 9.8968c2.787-2.8951 1.644-9.739-1.682-10.886-2.097 2.5466-2.797 10.764 1.682 10.886zm-5.044-3.9571c0.23599-2.257-0.20099-3.7228-1.681-3.9594 0.19199 1.7531-0.84702 4.9555 1.681 3.9594zm61.367 14.845c-2.301-6.1975-3.703-13.455-9.246-15.833 0.77899 7.9859 1.996 15.462 9.246 15.833zm-63.888-3.9582c1.071 2.0368 1.339 5.0202 4.202 4.9484-0.58398-3.9288 1.466-10.963-1.682-11.877-0.862 2.2817-2.893 3.1918-2.52 6.9287zm52.121-1.9803c2.537 1.5258 2.211-5.1215 0.84-4.9484-0.70599 1.149-1.109 2.6538-0.84 4.9484zm-3.366 10.888c2.056 0.55225 1.793 3.83 5.045 2.9693-0.56104-4.2914-0.21103-9.6494-3.362-10.888-0.957 2.1722-2.169 4.0441-1.683 7.9187zm-48.755 7.9165c1.733-3.2659 0.79102-10.42-0.84-12.867-4.027 0.54279-5.688 13.974 0.84 12.867zm63.888 14.847c-4.652-0.82059-4.699 7.8164-3.361 10.886-1.59-0.22134-1.854 1.1149-3.361 0.99017 0.080017 7.6833-5.99 8.1248-7.567 13.858 0.845 1.3163 0.79501 3.6828 2.522 3.9594 1.362-4.0924 2.59-5.6018 5.885-2.9692 0.020966-5.2545 3.561-6.3659 2.521-12.867 1.59-0.22131 1.854 1.1149 3.361 0.98898-0.15298-4.8977 1.898-8.7277 0-12.865h3.361c-0.854-5.9209-1.711-11.843-4.201-15.838 1.158 0.044739 1.846-0.46622 2.521-0.99017-0.87698-5.5653-2.492-10.261-7.564-10.886 2.793 8.9466 1.08 18.306 5.883 25.732zm-58.845-19.795c3.97-0.85822 4.91 5.3711 7.566 2.9681-0.715-4.4397-2.957-7.077-6.726-7.9188 0.26901 2.2971-0.133 3.8017-0.83997 4.9508zm44.554 11.876c-0.23801-4.846 2.721-11.245-1.682-12.866-2.306 3.6945-3.717 11.586 1.682 12.866zm0 28.702c9.501-7.6892 11.013-24.451 8.406-41.568h-2.521c-1.482 14.421-5.996 25.269-5.885 41.568zm-36.988 3.9594c-1.21-15.402-4.697-28.124-6.726-42.559-1.074-0.054138-1.164-1.268-2.522-0.98895-3.72 15.872-2.776 38.178 9.248 43.548zm-0.84-28.702c-3.523 3.8441 1.291 14.754 5.044 12.866-2.978-9.4423-0.12698-20.747-8.407-24.744-2.571 4.8036 2.248 8.2414 3.363 11.878zm34.466 7.9177c3.404-1.2174 0.96301-7.7905 0.84103-10.888h-3.363c0.62201 3.8876-1.773 11.326 2.522 10.888zm0 13.856c0.44-6.4589-0.621-11.146-3.362-13.857-2.088 4.4939-2.516 13.62 3.362 13.857zm-34.466 7.9176c-5.748-0.44028-4.56 7.9859 0 7.9177 2.173-1.8732 1.046-4.8648 0-7.9177zm7.566 14.846c1.607-4.4256-0.28003-6.6979-1.681-11.877 1.179-5.3864 0.97-15.819-4.204-16.827-2.741 5.8796 2.63 9.8496 2.522 15.836-0.78397-0.60519-3.102-2.3029-2.522 0.99017 1.762 4.1925 0.68997 11.725 5.885 11.877zm21.016 3.9594c2.645-0.47211 3.286 1.4081 5.043 1.9815 1.682-4.6846-1.057-9.8885-2.521-13.857 5.174-0.88882 1.937-14.707-2.521-13.858 0.95499 11.328-1.075 14.545-0.001007 25.734zm-10.088-15.835c-2.729-0.5734-3.911 0.6734-5.885 0.99124-0.18698 1.8708 0.948 2.1829 0.841 3.9559 2.074 0.13068 4.051 0.15192 5.044-0.98785v-3.9593zm0 5.9361c0.638 3.6086 2.684-0.091827 5.885 0.99136 1.23-2.1816 2.555-4.2515 2.521-7.9188-4.512 0.29669-7.034 2.934-8.406 6.9275zm-12.609 20.787c3.624-3.4154-0.071991-12.303-3.363-13.858 0 5.9373-0.042999 11.929 3.363 13.858zm27.74 1.9791c1.496-3.8228-1.616-9.6742-5.043-10.887-0.42602 6.1081 1.162 9.8461 5.043 10.887zm-26.9 12.865c0.12897-2.8056 1.843-15.116-4.204-13.857-0.35501 6.6897 0.16199 12.348 4.204 13.857zm27.741 0c0.729-7.455-2.096-10.728-5.884-12.866-0.78201 7.5161 1.065 11.943 5.884 12.866zm-33.626 11.878c-1.817 4.1997 0.028992 11.543 4.204 11.876-1.173-6.2576 1.479-10.93-4.204-11.876zm5.045 0.9878c1.729-3.7204-0.36099-11.424-3.363-12.866-1.928 3.9546-0.84402 12.845 3.363 12.866zm29.422 0c0.25598-4.5869-0.007019-8.5652-1.682-10.886-1.95 0.31787-3.229-0.1601-4.202-0.99014-0.70303 7.0958 1.714 10.521 5.884 11.876zm0 11.878c0.965-3.4896-0.88199-11.226-5.884-10.888 0.14099 5.7701 1.1 10.58 5.884 10.888zm-31.104 10.888c-1.537-4.461 0.10498-12.661-5.044-12.868-0.048004 6.3258-0.14999 12.712 5.044 12.868zm33.625 6.9263c-1.316-5.7207-2.393-16.956-7.564-14.843 1.399 6.267 1.09 14.55 7.564 14.843zm-36.147 5.9397c0.29498-7.276 1.162-11.87-4.204-13.856-0.84198 4.8789-0.466 12.653 4.204 13.856zm38.671 10.888c-0.923-7.1641-2.228-13.873-7.566-15.836-0.99597 5.6724 1.775 14.909 7.566 15.836zm-41.193 0v-10.888c-1.245-0.51453-2.118-1.4623-3.363-1.9803-2.345 4.714-1.682 11.85 3.363 12.868zm-3.363 10.886c3.642-2.4088 1.551-12.27-3.363-10.886-0.18698 5.1686-0.24399 10.185 3.363 10.886zm45.395 1.9803c0.82398-3.9252-0.70001-12.804-6.727-11.876 0.078979 6.5072 2.849 9.8425 6.727 11.876zm-47.917 8.9078c1.492-1.8756 0.61197-6.539 0.83997-9.8979-2.293 0.7193-1.691-1.9662-3.363-1.9804-1.66 4.222-0.854 10.67 2.523 11.878z"/>
</svg>
